<svg id="图层_1" data-name="图层 1" xmlns="http://www.w3.org/2000/svg" viewBox="0 0 155.67 137.96"><defs><style>.cls-1{fill:#233d96;}.cls-2{fill:#f5ba1b;}</style></defs><path class="cls-1" d="M7254.1,7192.35c0,.77,0,1.86,0,2.81v.19c0,.37,0,.71,0,1v0c0,.42,0,.87,0,1.35q-.5,16-4.51,27.92a53.14,53.14,0,0,1-11.37,19.75,49.2,49.2,0,0,1-16,11.36,66.72,66.72,0,0,1-21.29,5.27l-.19,0c-2.73.22-5.56.36-8.49.36h-6.74q-15.3,0-26.79-4.24a49.52,49.52,0,0,1-19.38-12.59,53,53,0,0,1-11.92-21.23q-4-12.93-4.05-30.6t4.05-30.83a53.94,53.94,0,0,1,11.92-21.45,49.56,49.56,0,0,1,19.39-12.73,74.74,74.74,0,0,1,23.89-4.25c-1.47.53-2.93,1.09-4.32,1.71a53.17,53.17,0,0,0-17.36,12.17,57,57,0,0,0-12.62,22q-4.25,13.14-4.47,30.45c0,.73,0,1.49,0,2.26s0,1.51,0,2.25h0a86.58,86.58,0,0,0,1.71,16.24c.38,1.89.81,3.71,1.33,5.42a35.91,35.91,0,0,0,6.91,13.25,30.19,30.19,0,0,0,13.05,8.67,45.87,45.87,0,0,0,8,2l.63.1.37.06a67.6,67.6,0,0,0,9.49.65H7192c.82,0,1.64,0,2.44,0a59.46,59.46,0,0,0,7-.59h0a41.41,41.41,0,0,0,12.65-3.72,29.55,29.55,0,0,0,9.46-7.23,37.25,37.25,0,0,0,7.48-15.07,98.31,98.31,0,0,0,0-43.18,38.11,38.11,0,0,0-7.37-15.16,29.47,29.47,0,0,0-9.44-7.3c-.13-.06-.28-.11-.42-.19h3a65.44,65.44,0,0,1,9.18.63l.24,0,.57.1,1.37.25.79.15a1.41,1.41,0,0,0,.22.06l.15,0,.39.09c.26.05.51.12.76.18.67.17,1.33.36,2,.55l.37.11c.43.14.85.29,1.26.44a26.07,26.07,0,0,1,11.24,7.6,34.2,34.2,0,0,1,6.4,12.83c.35,1.2.66,2.47.93,3.78a80.84,80.84,0,0,1,1.37,12.44c0,.47,0,.91,0,1.32v0c0,.28,0,.6,0,1S7254.1,7191.66,7254.1,7192.35Z" transform="translate(-7123.32 -7124.45)"/><path class="cls-2" d="M7279,7193.12q0,17.74-4.05,30.81a53.94,53.94,0,0,1-11.92,21.45,49.49,49.49,0,0,1-19.39,12.73,74.47,74.47,0,0,1-24.23,4.25q2.3-.81,4.49-1.78a53.24,53.24,0,0,0,17.35-12.32,57.23,57.23,0,0,0,12.29-21.3c2.83-8.41,4.38-18.12,4.73-29.12v0c0-.41,0-.86,0-1.36h0c0-.4,0-.75,0-1.06v-.23c0-1,0-2.09,0-2.81s0-1,0-1.46v-.05c0-.3,0-.65,0-1.05h0c0-.49,0-.93,0-1.34v0a74.59,74.59,0,0,0-2.79-18.59,35.47,35.47,0,0,0-6.91-13.25,30.36,30.36,0,0,0-13-8.67,55.88,55.88,0,0,0-18.66-2.81h-6.74a64.63,64.63,0,0,0-9.27.63h0a41.87,41.87,0,0,0-12.65,3.72,29.68,29.68,0,0,0-9.46,7.24,37.25,37.25,0,0,0-7.48,15.07,98.31,98.31,0,0,0,0,43.18,38.14,38.14,0,0,0,7.37,15.15,29.33,29.33,0,0,0,9.44,7.3,3.89,3.89,0,0,1,.42.19h-3.19a49.94,49.94,0,0,1-17.07-2.61,26.14,26.14,0,0,1-11.23-7.61,34,34,0,0,1-6.41-12.82,76.15,76.15,0,0,1-2.55-19.21c0-.74,0-1.47,0-2.19s0-1.48,0-2.21q.24-16.82,4.27-29.21a53,53,0,0,1,11.66-20.43,49,49,0,0,1,16-11.22,67.59,67.59,0,0,1,21.31-5.22c2.84-.25,5.8-.38,8.86-.38h6.74q15.3,0,26.79,4.23a49.74,49.74,0,0,1,19.39,12.59,47.68,47.68,0,0,1,6.92,9.47,60,60,0,0,1,5,11.76Q7279,7175.45,7279,7193.12Z" transform="translate(-7123.32 -7124.45)"/></svg>